PathFileType	4	(X/Y/Z)	pose_F01_0-80.trc
DataRate	CameraRate	NumFrames	NumMarkers	Units	OrigDataRate	OrigDataStartFrame	OrigNumFrames
30	30	8	21	m	30	53	80
Frame#	Time	CHip			RHip			RKnee			RAnkle			RBigToe			RSmallToe			RHeel			LHip			LKnee			LAnkle			LBigToe			LSmallToe			LHeel			Neck			Nose			RShoulder			RElbow			RWrist			LShoulder			LElbow			LWrist			
		X1	Y1	Z1	X2	Y2	Z2	X3	Y3	Z3	X4	Y4	Z4	X5	Y5	Z5	X6	Y6	Z6	X7	Y7	Z7	X8	Y8	Z8	X9	Y9	Z9	X10	Y10	Z10	X11	Y11	Z11	X12	Y12	Z12	X13	Y13	Z13	X14	Y14	Z14	X15	Y15	Z15	X16	Y16	Z16	X17	Y17	Z17	X18	Y18	Z18	X19	Y19	Z19	X20	Y20	Z20	X21	Y21	Z21	
53	1.7666666666666666	-0.2162584201306589	1.8334991094313333	-0.5533936604429278	-0.23308828729650793	1.8305316711756543	-0.4996742398652338	-0.23946338639346698	1.6976258087529748	-0.48759597066853694													-0.19629910187896243	1.8361489448012787	-0.6093621509088655	-0.20212659086908508	1.707674029975266	-0.5776798560053386	-0.20083068909679336	1.5825771704742368	-0.5803284069700402	-0.21516058856877596	1.5604795116235237	-0.6272160498383349	-0.20075767545426837	1.5660467156505382	-0.6380659888270575				-0.2104955516095148	1.9850455566489311	-0.5555540718551831	-0.21461334569411203	2.046527386584061	-0.6203448586808737	-0.23743319358656426	1.9827437121006748	-0.48372079166070237	-0.25169588047976377	1.9025934552413661	-0.45225329629585587	-0.21894868542240623	1.9091079081463995	-0.5971573759078859	-0.1863718815046941	1.9881647081490985	-0.6354107955575505	-0.15973229418620535	1.9274040094880962	-0.655835574413501	-0.19074896992824192	1.928025237074809	-0.6775815197330572
54	1.8	-0.2152680106957987	1.831720205314754	-0.5588302256229508	-0.23232129671476365	1.83047983409273	-0.5050749801889962	-0.23946338639346698	1.6976258087529748	-0.48759597066853694													-0.19742577976769876	1.8358133894430841	-0.6127474837978816	-0.20193572554093583	1.7077236068056638	-0.5864945409955145	-0.20251334778540508	1.5816042443633904	-0.5762113458236848	-0.21372952616965013	1.5513201505736653	-0.6242674411507595	-0.20237174479562758	1.5645375455262438	-0.6322599834045889				-0.21232164705581236	1.9866952262502664	-0.5622514083705163	-0.21244779500326688	2.049661779094716	-0.6230332052024244	-0.23644663467442803	1.9829146451366566	-0.48893523594617244	-0.25351373265128097	1.9034950788678116	-0.4500923324772777	-0.225482345523617	1.9162227299536168	-0.582431132119762	-0.1851186525954903	1.9878689859554073	-0.640875793387866	-0.16372939237264864	1.9307187945913526	-0.6808193890432226	-0.18975694708780222	1.9302386090399077	-0.6748328948694376
55	1.8333333333333333	-0.21306099507531068	1.8308696284992838	-0.5609840068400577	-0.2321620290426428	1.8297582985304346	-0.5050383887446883	-0.23946338639346698	1.6976258087529748	-0.48759597066853694													-0.19519237987927954	1.834805147973202	-0.6148789295368967	-0.2010459948327202	1.7086117806226622	-0.5831997845615405	-0.20419600647401684	1.5806313182525438	-0.5720942846773296	-0.21474350578460052	1.5486722901149572	-0.6269238200783215	-0.2033623333456374	1.5615217482394088	-0.6352018322476795				-0.21116703842097684	1.9865527911280365	-0.5677200282245435	-0.21122395960719945	2.0501123529771155	-0.6281571309091359	-0.2364318754877822	1.9830224695169754	-0.4891412137981775	-0.2537550384225527	1.906593151474508	-0.450689230625266	-0.2200216143339161	1.9200596621066977	-0.5927167401487695	-0.18088163198247645	1.9876468862951655	-0.6455000143241248	-0.16234647906137756	1.9323010058303898	-0.686288759919522	-1.3451139087349402	1.8460656130501814	0.523525235834607
56	1.8666666666666667	-0.21185080647265928	1.8331571408871852	-0.5668079394065757	-0.23107555665435067	1.8316509341599423	-0.5108632059178898	-0.23946338639346698	1.6976258087529748	-0.48759597066853694													-0.19409747487940626	1.835859412787014	-0.6204274460671265	-0.20226217598044813	1.7081288313701866	-0.5861131594921011	-0.20424363509579843	1.5806183510802208	-0.5720306409611314	-0.21450962497089587	1.5448185781211718	-0.6266700217938396	-0.20418133561438656	1.5581761246328723	-0.6381214572567124				-0.21009736333750378	1.9865933648962084	-0.5732228504993309	-0.2119674825663549	2.0510452172585327	-0.6312394875259429	-0.23537738023098423	1.9860552990066802	-0.4948457512828458	-0.25573564321357845	1.9100183405416786	-0.4492030420907597	-0.23264895413451256	1.9185619619613856	-0.5791742753258361	-0.1788596902570876	1.9891752381206926	-0.6481815764755962	-0.1591455828457634	1.9346065693150405	-0.6857735306594114	-1.364736720215867	1.8504600076980173	0.5526139549933399
57	1.9	-0.21217890173625348	1.8313704440582723	-0.5664605313520146	-0.23039561383688092	1.8283019797429696	-0.507263288825901	-0.23946338639346698	1.6976258087529748	-0.48759597066853694													-0.19411695627735334	1.8338805633837767	-0.6202409775873678	-0.20031340626765906	1.7057994886311325	-0.5880166085367392	-0.20424781958090327	1.580586142534004	-0.5720666131494272	-0.2146265506335809	1.545235811149297	-0.6266591390265733	-0.2040422037195644	1.5571523043573658	-0.6384847808065606				-0.2069651439035674	1.986444544500638	-0.5808589481897147	-0.2119418296312588	2.0511141478286627	-0.6313841440587024	-0.23435328096157806	1.9864601721918473	-0.5002287288859142	-0.25695604947222483	1.9103742153268193	-0.4528174352343317	-0.23139513567873773	1.9199776091892649	-0.5849700115644487	-0.1774913833053589	1.9881968163943717	-0.6531723250890191	-0.15256800562854078	1.9314345505255885	-0.6930066358160714	-1.3402154632985752	1.849479942478535	0.5168015312103901
58	1.9333333333333333	-0.21124900432655117	1.8323637765714205	-0.5719709125070336	-0.23159829563961817	1.8300782935601285	-0.5107473916613116	-0.23946338639346698	1.6976258087529748	-0.48759597066853694													-0.19300217616630436	1.8344436525064605	-0.6258315470029379	-0.20105444688464352	1.7080744153504566	-0.5916340234846531	-0.20425200406600807	1.5805539339877872	-0.572102585337723	-0.2167392165115416	1.5450763026342187	-0.624456926149345	-0.2061771623699909	1.5570825275402984	-0.6362473746290318				-0.20780190399681148	1.9865995416786533	-0.584017497738658	-0.21081623416649342	2.051209404437345	-0.6364961622777715	-0.2383816702629258	1.9868295665157247	-0.504940246933968	-0.2579640764381767	1.9110079004809648	-0.4561475181072357	-0.22901619173801188	1.9297044987096545	-0.5969456718067229	-0.17749022912173448	1.989351204687133	-0.6536912884999221	-0.14969541882536422	1.928583860377412	-0.7041338362016886	-1.3257276082223235	1.8512970488717924	0.49101723415707405
59	1.9666666666666666	-0.20977436463246665	1.836602901570731	-0.578058180910614	-0.22814928232233236	1.833471187861699	-0.5189021850402736	-0.23946338639346698	1.6976258087529748	-0.48759597066853694													-0.1933577545652427	1.836731924821885	-0.6380565572004644	-0.1986734991860989	1.7084092604596324	-0.5942930691400926	-0.20422503025626937	1.5804042409165675	-0.5721354078951507	-0.2147037860108673	1.545534539404445	-0.626642708459691	-0.20433871900373363	1.5560441196275352	-0.6378685580701661				-0.20574157838662654	1.9865472945816534	-0.5864222748604931	-0.21368556708975642	2.051298429327327	-0.6374954190335688	-0.23343683896078868	1.9855345884669007	-0.5057219789915587	-0.2568970033268071	1.9133775810220843	-0.46167165014030165	-0.22572786580314796	1.9351763250944152	-0.6056279662762586	-0.17615110620786728	1.9885330948387898	-0.6587901175252948	-0.14757676588716262	1.9259221980300512	-0.706682444388031	-1.3037019906033083	1.8511404791746835	0.45738249823515276
60	2.0	-0.21077339138076662	1.8347180207127907	-0.5809837995972159	-0.22810286772716282	1.830267650784741	-0.5184629536617181	-0.23946338639346698	1.6976258087529748	-0.48759597066853694													-0.19495170063130562	1.8354951596763858	-0.6443514912961141	-0.19950731319507808	1.7060005925021315	-0.5973089983074091	-0.20420683251546562	1.5804395988104212	-0.5721116890193048	-0.21656984857281586	1.5445676542396123	-0.6244893184271194	-0.2030103114761787	1.5567177445977949	-0.6352678377446072				-0.2065743236057443	1.9868125859535422	-0.5894959720637694	-0.21170741761366685	2.0513554008861288	-0.6396335073887396	-0.23439083196095184	1.9856573287671342	-0.5089392578491503	-0.2569187527028177	1.913660004962709	-0.4616921558359127	-0.24810825195283379	1.9319447417182547	-0.5947134192043125	-0.17571148625727062	1.9893287412019547	-0.6672885818771869	-0.14950846230750364	1.926507414781583	-0.725096744958046	-1.3162651969771628	1.853302235906199	0.4646151487599909
